<?xml version="1.0" encoding="UTF-8" standalone="no"?>
<!DOCTYPE svg PUBLIC "-//W3C//DTD SVG 1.1//EN" "http://www.w3.org/Graphics/SVG/1.1/DTD/svg11.dtd">
<svg width="100%" height="100%" viewBox="0 0 143 135" version="1.1" xmlns="http://www.w3.org/2000/svg" xmlns:xlink="http://www.w3.org/1999/xlink" xml:space="preserve" xmlns:serif="http://www.serif.com/" style="fill-rule:evenodd;clip-rule:evenodd;stroke-linecap:round;stroke-linejoin:round;stroke-miterlimit:1.5;">
    <g transform="matrix(1,0,0,1,-888.789,-472.902)">
        <g id="box" transform="matrix(1,0,0,1,40.7612,161.763)">
            <g transform="matrix(1,0,0,1,0,-30)">
                <path d="M919.239,341.639L919.239,438.232" style="fill:none;stroke:white;stroke-opacity:0.25;stroke-width:1px;"/>
            </g>
            <g transform="matrix(1,0,0,1,0,-30)">
                <path d="M848.528,456.533L919.239,438.232" style="fill:none;stroke:white;stroke-opacity:0.25;stroke-width:1px;"/>
            </g>
            <g transform="matrix(1,0,0,1,0,-30)">
                <path d="M919.239,438.232L989.949,456.533" style="fill:none;stroke:white;stroke-opacity:0.25;stroke-width:1px;"/>
            </g>
            <g transform="matrix(0.9681,-0.250563,1.99551,0.516475,0,0.51739)">
                <rect x="-219.122" y="531.524" width="73.041" height="35.435" style="fill:none;stroke:white;stroke-width:0.48px;"/>
            </g>
            <g transform="matrix(0.9681,0.250563,0,1.03295,141.421,50.335)">
                <rect x="730.406" y="93.511" width="73.041" height="93.511" style="fill:none;stroke:white;stroke-width:0.88px;"/>
            </g>
            <g transform="matrix(0.9681,-0.250563,0,1.03295,-141.421,43.2051)">
                <rect x="1095.61" y="561.068" width="73.041" height="93.511" style="fill:none;stroke:white;stroke-width:1.14px;"/>
            </g>
        </g>
    </g>
</svg>
