<?xml version="1.0" encoding="UTF-8" standalone="no"?>
<!DOCTYPE svg PUBLIC "-//W3C//DTD SVG 1.1//EN" "http://www.w3.org/Graphics/SVG/1.1/DTD/svg11.dtd">
<svg width="100%" height="100%" viewBox="0 0 28 28" version="1.1" xmlns="http://www.w3.org/2000/svg" xmlns:xlink="http://www.w3.org/1999/xlink" xml:space="preserve" xmlns:serif="http://www.serif.com/" style="fill-rule:evenodd;clip-rule:evenodd;stroke-linecap:round;stroke-linejoin:round;stroke-miterlimit:1.5;">
    <g transform="matrix(1,0,0,1,-761.113,-359.44)">
        <g id="coin" transform="matrix(0.656647,0,0,0.656647,480.822,111.325)">
            <g transform="matrix(1.10877,0,0,1.10877,-48.7296,-43.3998)">
                <circle cx="448" cy="399" r="18.387" style="fill:none;stroke:white;stroke-width:1.37px;"/>
            </g>
            <path d="M448,385L460.387,393.613L460.387,404.387L448,413L435.613,404.387L435.613,393.613L448,385Z" style="fill:none;stroke:white;stroke-width:1.52px;"/>
            <g transform="matrix(1.77693,0,0,1.77693,-11.3064,-179.34)">
                <g transform="matrix(12,0,0,12,251,328.4)">
                    <path d="M0.052,-0.429C0.052,-0.427 0.054,-0.426 0.058,-0.426C0.061,-0.426 0.074,-0.428 0.098,-0.432C0.122,-0.436 0.143,-0.438 0.162,-0.438C0.141,-0.432 0.122,-0.426 0.107,-0.42C0.091,-0.414 0.075,-0.407 0.059,-0.4C0.042,-0.393 0.031,-0.388 0.023,-0.385C0.016,-0.383 0.01,-0.382 0.005,-0.382C-0.012,-0.382 -0.02,-0.393 -0.02,-0.414C-0.02,-0.469 -0.006,-0.508 0.022,-0.531C0.033,-0.54 0.052,-0.551 0.077,-0.563C0.102,-0.576 0.131,-0.588 0.162,-0.599C0.194,-0.61 0.229,-0.62 0.267,-0.628C0.305,-0.636 0.343,-0.64 0.38,-0.64C0.418,-0.64 0.453,-0.635 0.485,-0.624C0.517,-0.612 0.543,-0.597 0.565,-0.577C0.586,-0.557 0.603,-0.532 0.615,-0.503C0.626,-0.474 0.632,-0.442 0.632,-0.406C0.632,-0.351 0.616,-0.297 0.584,-0.246C0.552,-0.194 0.51,-0.148 0.457,-0.109C0.404,-0.069 0.345,-0.038 0.278,-0.015C0.212,0.008 0.146,0.02 0.082,0.02C0.07,0.02 0.06,0.019 0.053,0.016C0.046,0.014 0.042,0.008 0.039,0.001C0.036,-0.007 0.034,-0.018 0.034,-0.033C0.034,-0.052 0.036,-0.067 0.039,-0.079C0.042,-0.09 0.046,-0.104 0.053,-0.119C0.1,-0.223 0.182,-0.354 0.298,-0.511C0.274,-0.509 0.249,-0.504 0.221,-0.496C0.193,-0.489 0.166,-0.481 0.141,-0.472C0.116,-0.463 0.095,-0.455 0.078,-0.447C0.06,-0.439 0.052,-0.433 0.052,-0.429ZM0.312,-0.514C0.312,-0.514 0.313,-0.51 0.314,-0.503C0.315,-0.497 0.316,-0.491 0.316,-0.486C0.316,-0.478 0.312,-0.468 0.304,-0.454C0.297,-0.441 0.282,-0.417 0.259,-0.382C0.237,-0.348 0.218,-0.318 0.202,-0.292C0.186,-0.265 0.167,-0.232 0.145,-0.191C0.138,-0.178 0.133,-0.169 0.131,-0.165C0.128,-0.16 0.124,-0.153 0.118,-0.142C0.113,-0.132 0.109,-0.123 0.106,-0.115C0.103,-0.108 0.102,-0.102 0.102,-0.098C0.102,-0.09 0.107,-0.084 0.116,-0.08C0.125,-0.077 0.139,-0.075 0.156,-0.075C0.2,-0.075 0.247,-0.083 0.296,-0.099C0.346,-0.115 0.392,-0.138 0.436,-0.167C0.479,-0.195 0.514,-0.228 0.54,-0.264C0.566,-0.3 0.579,-0.338 0.579,-0.377C0.579,-0.422 0.563,-0.456 0.53,-0.481C0.497,-0.505 0.449,-0.517 0.386,-0.517C0.36,-0.517 0.335,-0.516 0.312,-0.514Z" style="fill:rgb(244,63,112);fill-rule:nonzero;stroke:rgb(244,63,112);stroke-width:0.07px;stroke-linecap:butt;stroke-miterlimit:2;"/>
                </g>
                <g transform="matrix(12,0,0,12,258.752,328.4)">
                    <path d="M0.324,-0.243L0.398,-0.243C0.441,-0.3 0.473,-0.35 0.495,-0.393C0.518,-0.436 0.529,-0.464 0.529,-0.477C0.529,-0.496 0.513,-0.505 0.481,-0.505C0.462,-0.503 0.43,-0.499 0.382,-0.493C0.335,-0.487 0.289,-0.479 0.245,-0.47C0.205,-0.463 0.174,-0.455 0.15,-0.447C0.126,-0.439 0.109,-0.432 0.099,-0.427C0.089,-0.422 0.083,-0.418 0.081,-0.416C0.105,-0.417 0.125,-0.418 0.142,-0.418C0.168,-0.418 0.181,-0.415 0.181,-0.409C0.181,-0.407 0.172,-0.403 0.154,-0.399C0.136,-0.395 0.118,-0.391 0.102,-0.386C0.086,-0.382 0.071,-0.376 0.055,-0.37C0.04,-0.364 0.031,-0.361 0.028,-0.361C0.02,-0.361 0.014,-0.364 0.009,-0.369C0.004,-0.375 0.002,-0.382 0.002,-0.39C0.002,-0.396 0.006,-0.41 0.015,-0.433C0.024,-0.457 0.037,-0.48 0.053,-0.504C0.069,-0.527 0.09,-0.545 0.114,-0.556C0.123,-0.56 0.151,-0.568 0.198,-0.579C0.245,-0.59 0.299,-0.6 0.358,-0.609C0.418,-0.618 0.472,-0.623 0.522,-0.623C0.552,-0.623 0.576,-0.619 0.594,-0.611C0.612,-0.602 0.621,-0.584 0.621,-0.557C0.621,-0.548 0.618,-0.535 0.611,-0.516C0.605,-0.498 0.594,-0.474 0.58,-0.446C0.566,-0.417 0.549,-0.386 0.529,-0.352C0.508,-0.317 0.485,-0.281 0.459,-0.243L0.534,-0.243L0.469,-0.15C0.46,-0.149 0.449,-0.149 0.436,-0.148C0.423,-0.148 0.409,-0.148 0.393,-0.147C0.353,-0.095 0.31,-0.046 0.263,-0C0.216,0.046 0.174,0.083 0.136,0.11C0.098,0.138 0.071,0.152 0.056,0.152C0.05,0.152 0.045,0.15 0.04,0.146C0.035,0.142 0.033,0.136 0.033,0.13C0.033,0.124 0.04,0.11 0.055,0.087C0.069,0.065 0.09,0.043 0.115,0.023C0.141,0.004 0.17,-0.007 0.203,-0.01C0.216,-0.024 0.228,-0.036 0.238,-0.047C0.247,-0.058 0.261,-0.074 0.278,-0.094C0.296,-0.115 0.309,-0.131 0.319,-0.142L0.172,-0.135C0.156,-0.134 0.145,-0.135 0.139,-0.137C0.133,-0.139 0.13,-0.144 0.13,-0.153C0.13,-0.153 0.132,-0.157 0.135,-0.165C0.138,-0.174 0.141,-0.181 0.145,-0.187C0.15,-0.196 0.154,-0.202 0.157,-0.204C0.161,-0.206 0.169,-0.209 0.184,-0.212L0.274,-0.234C0.298,-0.24 0.315,-0.243 0.324,-0.243Z" style="fill:rgb(244,63,112);fill-rule:nonzero;stroke:rgb(244,63,112);stroke-width:0.07px;stroke-linecap:butt;stroke-miterlimit:2;"/>
                </g>
            </g>
        </g>
    </g>
</svg>
