<?xml version="1.0" encoding="UTF-8" standalone="no"?>
<!DOCTYPE svg PUBLIC "-//W3C//DTD SVG 1.1//EN" "http://www.w3.org/Graphics/SVG/1.1/DTD/svg11.dtd">
<svg width="100%" height="100%" viewBox="0 0 602 215" version="1.1" xmlns="http://www.w3.org/2000/svg" xmlns:xlink="http://www.w3.org/1999/xlink" xml:space="preserve" xmlns:serif="http://www.serif.com/" style="fill-rule:evenodd;clip-rule:evenodd;stroke-linecap:round;stroke-linejoin:round;stroke-miterlimit:1.5;">
    <g transform="matrix(1,0,0,1,-659.47,-432.75)">
        <g id="bg" transform="matrix(1,0,0,1,19.5299,127.75)">
            <g transform="matrix(0.745546,0,0,0.745546,162.836,89.0286)">
                <circle cx="650" cy="359.94" r="10.06" style="fill:rgb(244,63,112);"/>
            </g>
            <g transform="matrix(0.745546,0,0,0.745546,303.836,51.6481)">
                <circle cx="650" cy="359.94" r="10.06" style="fill:rgb(244,63,112);"/>
            </g>
            <g transform="matrix(0.745546,0,0,0.745546,219.395,151.648)">
                <circle cx="650" cy="359.94" r="10.06" style="fill:rgb(244,63,112);"/>
            </g>
            <g transform="matrix(0.745546,0,0,0.745546,354.895,243.648)">
                <circle cx="650" cy="359.94" r="10.06" style="fill:rgb(244,63,112);"/>
            </g>
            <g transform="matrix(0.745546,0,0,0.745546,595.895,151.648)">
                <circle cx="650" cy="359.94" r="10.06" style="fill:rgb(244,63,112);"/>
            </g>
            <g transform="matrix(0.745546,0,0,0.745546,564.895,88.6481)">
                <circle cx="650" cy="359.94" r="10.06" style="fill:rgb(244,63,112);"/>
            </g>
            <g transform="matrix(0.745546,0,0,0.745546,643.895,44.1481)">
                <circle cx="650" cy="359.94" r="10.06" style="fill:rgb(244,63,112);"/>
            </g>
            <g transform="matrix(0.745546,0,0,0.745546,748.895,144.148)">
                <circle cx="650" cy="359.94" r="10.06" style="fill:rgb(244,63,112);"/>
            </g>
            <path d="M647.44,357L1080.5,420L1233.5,412.5L704,420L1128.5,312.5L647.44,357Z" style="fill:none;stroke:rgb(244,63,112);stroke-opacity:0.5;stroke-width:1px;"/>
            <path d="M1049.5,357L647.44,357L788.44,320L839.5,512L1049.5,357Z" style="fill:none;stroke:rgb(244,63,112);stroke-opacity:0.25;stroke-width:1px;"/>
            <path d="M1233.5,413L1049.5,357L1081,420L789,320L1233.5,413Z" style="fill:none;stroke:rgb(244,63,112);stroke-opacity:0.15;stroke-width:1px;"/>
        </g>
    </g>
</svg>
